<svg width="689" height="276" viewBox="0 0 689 276" fill="none" xmlns="http://www.w3.org/2000/svg">
<path d="M281.164 199.316H289.194L296.454 143.326L303.714 199.316H311.744L301.074 125.176C300.854 123.306 299.644 122.316 297.774 122.316H292.274L281.164 199.316ZM355.466 199.316H360.306L366.466 148.716L372.186 196.456C372.406 198.326 373.616 199.316 375.486 199.316H380.326L390.336 122.316H385.496C383.626 122.316 382.526 123.196 382.306 125.176L376.476 176.106L370.316 122.316H365.476C363.606 122.316 362.506 123.196 362.286 125.176L356.456 176.106L350.626 125.176C350.406 123.196 349.306 122.316 347.436 122.316H342.596L352.166 196.456C352.386 198.326 353.596 199.316 355.466 199.316ZM420.035 199.316H428.065L435.325 143.326L442.585 199.316H450.615L439.945 125.176C439.725 123.306 438.515 122.316 436.645 122.316H431.145L420.035 199.316ZM501.241 122.316H488.041V199.316H495.741V162.356H500.141C503.001 162.356 504.541 163.896 504.541 166.756V196.236C504.541 198.216 505.641 199.316 507.621 199.316H512.241V166.536C512.241 163.346 511.031 160.816 508.831 158.946C511.031 157.076 512.241 154.546 512.241 151.356V133.316C512.241 126.166 508.391 122.316 501.241 122.316ZM495.741 155.536V129.136H500.141C503.001 129.136 504.541 130.676 504.541 133.536V151.136C504.541 153.996 503.001 155.536 500.141 155.536H495.741ZM567.293 122.316H554.093V199.316H567.293C574.443 199.316 578.293 195.466 578.293 188.316V133.316C578.293 126.166 574.443 122.316 567.293 122.316ZM561.793 192.496V129.136H566.193C569.053 129.136 570.593 130.676 570.593 133.536V188.096C570.593 190.956 569.053 192.496 566.193 192.496H561.793ZM624.532 135.406V132.546C624.532 129.686 626.072 128.146 628.932 128.146C631.792 128.146 633.332 129.686 633.332 132.546V142.226L638.612 140.136C640.262 139.476 641.032 138.266 641.032 136.506V132.546C641.032 125.396 637.182 121.546 630.032 121.546H627.832C620.682 121.546 616.832 125.396 616.832 132.546V135.406C616.832 145.966 633.332 167.196 633.332 178.416V189.086C633.332 191.946 631.792 193.486 628.932 193.486C626.072 193.486 624.532 191.946 624.532 189.086V174.566L619.252 176.656C617.602 177.316 616.832 178.526 616.832 180.286V189.086C616.832 196.236 620.682 200.086 627.832 200.086H630.032C637.182 200.086 641.032 196.236 641.032 189.086V178.416C641.032 164.996 624.532 145.746 624.532 135.406Z" fill="url(#paint0_linear_364_123)"/>
<path d="M294.343 72.1768V53.0791H286.892L287.893 55.5837C288.269 56.5229 288.958 56.9612 289.96 56.9612V72.1768C289.96 73.8048 289.083 74.6814 287.455 74.6814C285.827 74.6814 284.951 73.8048 284.951 72.1768V39.9925C284.951 38.3645 285.827 37.4878 287.455 37.4878C289.083 37.4878 289.96 38.3645 289.96 39.9925V48.7586L292.965 47.5689C293.905 47.1932 294.343 46.5045 294.343 45.5026V39.9925C294.343 35.9225 292.151 33.7309 288.081 33.7309H286.829C282.759 33.7309 280.567 35.9225 280.567 39.9925V72.1768C280.567 76.2468 282.759 78.4383 286.829 78.4383H288.081C292.151 78.4383 294.343 76.2468 294.343 72.1768ZM318.166 39.9925V72.1768C318.166 76.2468 320.358 78.4383 324.428 78.4383H325.93C330 78.4383 332.192 76.2468 332.192 72.1768V39.9925C332.192 35.9225 330 33.7309 325.93 33.7309H324.428C320.358 33.7309 318.166 35.9225 318.166 39.9925ZM322.549 72.1768V39.9925C322.549 38.3645 323.426 37.4878 325.054 37.4878H325.304C326.932 37.4878 327.809 38.3645 327.809 39.9925V72.1768C327.809 73.8048 326.932 74.6814 325.304 74.6814H325.054C323.426 74.6814 322.549 73.8048 322.549 72.1768ZM359.453 35.9225C359.453 34.7954 358.827 34.1692 357.7 34.1692H355.07V78H365.214C366.215 78 366.904 77.5617 367.28 76.6225L368.282 74.1178H359.453V35.9225ZM395.198 34.1692H387.684V78H395.198C399.268 78 401.459 75.8085 401.459 71.7385V40.4308C401.459 36.3608 399.268 34.1692 395.198 34.1692ZM392.067 74.1178V38.0514H394.571C396.199 38.0514 397.076 38.928 397.076 40.556V71.6132C397.076 73.2412 396.199 74.1178 394.571 74.1178H392.067ZM425.588 35.9225V78H429.971V56.9612H433.853C434.855 56.9612 435.544 56.5229 435.92 55.5837L436.921 53.0791H429.971V38.0514H435.669C436.671 38.0514 437.36 37.6131 437.735 36.6738L438.737 34.1692H427.341C426.214 34.1692 425.588 34.7954 425.588 35.9225ZM460.788 34.1692H458.158V78H462.541V35.9225C462.541 34.7954 461.915 34.1692 460.788 34.1692ZM489.172 34.1692H486.354V78H490.737V49.6352L496.686 76.4346C496.936 77.4365 497.5 78 498.564 78H501.382V34.1692H496.999V62.534L491.051 35.7346C490.8 34.7328 490.237 34.1692 489.172 34.1692ZM534.867 66.6666V72.1768C534.867 73.8048 533.99 74.6814 532.362 74.6814C530.734 74.6814 529.857 73.8048 529.857 72.1768V39.9925C529.857 38.3645 530.734 37.4878 532.362 37.4878C533.99 37.4878 534.867 38.3645 534.867 39.9925V48.7586L537.872 47.5689C538.811 47.1932 539.25 46.5045 539.25 45.5026V39.9925C539.25 35.9225 537.058 33.7309 532.988 33.7309H531.736C527.666 33.7309 525.474 35.9225 525.474 39.9925V72.1768C525.474 76.2468 527.666 78.4383 531.736 78.4383H532.988C537.058 78.4383 539.25 76.2468 539.25 72.1768V63.4106L536.244 64.6003C535.305 64.976 534.867 65.6648 534.867 66.6666ZM562.102 35.9225V78H566.485V56.9612H571.494V78H575.877V35.9225C575.877 34.7954 575.251 34.1692 574.124 34.1692H571.494V53.0791H566.485V34.1692H563.855C562.728 34.1692 562.102 34.7954 562.102 35.9225ZM599.686 35.9225V78H610.456C611.457 78 612.146 77.5617 612.522 76.6225L613.524 74.1178H604.069V56.9612H607.951C608.953 56.9612 609.642 56.5229 610.017 55.5837L611.019 53.0791H604.069V38.0514H609.767C610.769 38.0514 611.457 37.6131 611.833 36.6738L612.835 34.1692H601.439C600.312 34.1692 599.686 34.7954 599.686 35.9225ZM635.761 41.6205V39.9925C635.761 38.3645 636.637 37.4878 638.265 37.4878C639.893 37.4878 640.77 38.3645 640.77 39.9925V45.5026L643.775 44.3129C644.715 43.9372 645.153 43.2485 645.153 42.2466V39.9925C645.153 35.9225 642.961 33.7309 638.891 33.7309H637.639C633.569 33.7309 631.377 35.9225 631.377 39.9925V41.6205C631.377 47.6315 640.77 59.7163 640.77 66.1031V72.1768C640.77 73.8048 639.893 74.6814 638.265 74.6814C636.637 74.6814 635.761 73.8048 635.761 72.1768V63.9115L632.755 65.1012C631.816 65.4769 631.377 66.1657 631.377 67.1675V72.1768C631.377 76.2468 633.569 78.4383 637.639 78.4383H638.891C642.961 78.4383 645.153 76.2468 645.153 72.1768V66.1031C645.153 58.464 635.761 47.5063 635.761 41.6205Z" fill="url(#paint1_linear_364_123)"/>
<path d="M285.569 232.512C284.477 232.512 283.593 233.396 283.593 234.488V238.752C282.605 238.336 281.149 237.66 280.837 237.504C280.369 237.244 279.849 236.672 279.849 235.476V233.864C279.849 231.316 281.929 229.236 284.477 229.236H286.661C289.209 229.236 291.289 231.316 291.289 233.864V240.156C291.289 240.156 291.341 242.704 290.457 244.576L285.205 256.536C285.205 256.536 283.593 260.02 283.593 261.684V262.256H292.641C292.225 263.244 291.601 264.648 291.445 264.96C291.185 265.428 290.613 266 289.417 266H279.849V262.828C279.849 262.828 279.745 260.072 281.409 256.432L285.933 245.928C285.933 245.928 287.545 242.392 287.545 240.572V234.488C287.545 233.396 286.661 232.512 285.569 232.512ZM322.208 229.236H324.548C327.044 229.34 329.02 231.368 329.02 233.864V261.788C329.02 264.284 326.992 266.26 324.548 266.364H322.208C319.66 266.364 317.58 264.284 317.58 261.788V233.864C317.58 231.316 319.66 229.236 322.208 229.236ZM323.3 263.088C324.392 263.088 325.276 262.204 325.276 261.112V234.54C325.276 233.448 324.392 232.512 323.3 232.512C322.208 232.512 321.324 233.448 321.324 234.54V261.112C321.324 262.204 322.208 263.088 323.3 263.088ZM360.408 232.512C359.316 232.512 358.432 233.396 358.432 234.488V238.752C357.444 238.336 355.988 237.66 355.676 237.504C355.208 237.244 354.688 236.672 354.688 235.476V233.864C354.688 231.316 356.768 229.236 359.316 229.236H361.5C364.048 229.236 366.128 231.316 366.128 233.864V240.156C366.128 240.156 366.18 242.704 365.296 244.576L360.044 256.536C360.044 256.536 358.432 260.02 358.432 261.684V262.256H367.48C367.064 263.244 366.44 264.648 366.284 264.96C366.024 265.428 365.452 266 364.256 266H354.688V262.828C354.688 262.828 354.584 260.072 356.248 256.432L360.772 245.928C360.772 245.928 362.384 242.392 362.384 240.572V234.488C362.384 233.396 361.5 232.512 360.408 232.512ZM401.312 255.392H405.16C404.744 256.38 404.068 257.94 403.912 258.252C403.652 258.772 403.028 259.344 401.78 259.344H401.312V266H398.712C398.088 266 397.62 265.48 397.568 264.908V259.344H393.564C392.316 259.344 391.848 258.772 391.588 258.252L390.184 255.548L397.308 230.744C397.62 229.652 398.348 229.6 398.608 229.6H401.312V255.392ZM397.568 243.12L394.032 255.392H397.568V243.12Z" fill="url(#paint2_linear_364_123)"/>
<rect y="251" width="240" height="4" fill="url(#paint3_linear_364_123)"/>
<rect x="445" y="251.012" width="240" height="3.87345" fill="url(#paint4_linear_364_123)"/>
<path d="M111.083 132.432L69.7197 90.4818L17.7937 78.1702L56.577 126.545L51.0444 130.512L0 66.8385L73.0594 84.1623L117.311 129.042L111.083 132.432Z" fill="url(#paint5_linear_364_123)"/>
<path d="M186.747 217.976L141.165 218L134.901 205.665L114.82 206.198L80.5774 193.166L59.1644 165.386L47.8471 156.359L17.5897 146.464L45.3928 134.195L60.9944 123.085L75.0325 124.238L84.5127 132.298L99.6649 138.246L117.526 128.352L116.723 108.385L215.64 34L225.429 73.0859L219.502 107.5L200.994 141.184L176.22 155.696L177.953 161.77L173.038 163.254L182.717 167.423L240 153.865L235.033 175.959L219.197 201.067L186.747 217.976ZM145.22 211.049L185.066 211.026L214.496 195.698L228.711 173.15L230.964 163.147L182.174 174.69L170.414 169.625L129.013 169.281L169.577 157.033L168.242 152.332L196.012 136.069L213.05 105.056L218.524 73.2861L211.603 45.6786L123.623 111.839L124.451 132.435L100.21 145.865L81.1078 138.368L72.4234 130.982L62.9178 130.201L48.7285 140.308L36.9215 145.519L50.9943 150.123L63.9298 160.439L84.6672 187.346L115.883 199.222L152.493 199.868L142.905 206.478L145.22 211.049Z" fill="url(#paint6_linear_364_123)"/>
<defs>
<linearGradient id="paint0_linear_364_123" x1="498.5" y1="61.3162" x2="498.5" y2="247.275" gradientUnits="userSpaceOnUse">
<stop stop-color="#B67933"/>
<stop offset="0.494792" stop-color="#FBF4A1"/>
<stop offset="1" stop-color="#B67933"/>
</linearGradient>
<linearGradient id="paint1_linear_364_123" x1="498.5" y1="0" x2="498.5" y2="105.544" gradientUnits="userSpaceOnUse">
<stop stop-color="#B67933"/>
<stop offset="0.494792" stop-color="#FBF4A1"/>
<stop offset="1" stop-color="#B67933"/>
</linearGradient>
<linearGradient id="paint2_linear_364_123" x1="342" y1="214" x2="342" y2="276" gradientUnits="userSpaceOnUse">
<stop stop-color="#B67933"/>
<stop offset="0.494792" stop-color="#FBF4A1"/>
<stop offset="1" stop-color="#B67933"/>
</linearGradient>
<linearGradient id="paint3_linear_364_123" x1="120" y1="251" x2="120" y2="255" gradientUnits="userSpaceOnUse">
<stop stop-color="#B67933"/>
<stop offset="0.0001" stop-color="#B77C35"/>
<stop offset="0.494792" stop-color="#FBF4A1"/>
<stop offset="1" stop-color="#B67933"/>
</linearGradient>
<linearGradient id="paint4_linear_364_123" x1="565" y1="251.012" x2="565" y2="254.886" gradientUnits="userSpaceOnUse">
<stop stop-color="#B67933"/>
<stop offset="0.494792" stop-color="#FBF4A1"/>
<stop offset="1" stop-color="#B67933"/>
</linearGradient>
<linearGradient id="paint5_linear_364_123" x1="112.96" y1="50.1257" x2="140.462" y2="225.245" gradientUnits="userSpaceOnUse">
<stop stop-color="#B67933"/>
<stop offset="0.494792" stop-color="#FBF4A1"/>
<stop offset="1" stop-color="#B67933"/>
</linearGradient>
<linearGradient id="paint6_linear_364_123" x1="112.96" y1="50.1257" x2="140.462" y2="225.245" gradientUnits="userSpaceOnUse">
<stop stop-color="#B67933"/>
<stop offset="0.494792" stop-color="#FBF4A1"/>
<stop offset="1" stop-color="#B67933"/>
</linearGradient>
</defs>
</svg>
