<svg width="713" height="713" viewBox="0 0 713 713" fill="none" xmlns="http://www.w3.org/2000/svg">
<circle cx="356.5" cy="356.5" r="356.5" fill="#171717"/>
<path d="M328.948 345.832L243.77 259.105L136.842 233.653L216.706 333.663L205.313 341.863L100.2 210.226L250.648 246.04L341.773 338.824L328.948 345.832Z" fill="url(#paint0_linear_329_4)"/>
<path d="M484.759 522.685L390.895 522.734L377.995 497.233L336.644 498.335L266.129 471.394L222.035 413.961L198.73 395.3L136.422 374.842L193.675 349.478L225.803 326.51L254.711 328.892L274.233 345.555L305.435 357.853L342.215 337.397L340.562 296.118L544.256 142.335L564.414 223.141L552.209 294.288L514.098 363.927L463.082 393.928L466.65 406.485L456.529 409.553L476.461 418.172L594.42 390.143L584.192 435.819L551.582 487.728L484.759 522.685ZM399.245 508.365L481.297 508.316L541.901 476.628L571.173 430.012L575.812 409.332L475.341 433.197L451.124 422.725L365.871 422.013L449.402 396.693L446.652 386.974L503.837 353.351L538.922 289.235L550.195 223.555L535.943 166.479L354.77 303.258L356.475 345.838L306.558 373.603L267.221 358.104L249.338 342.836L229.764 341.221L200.544 362.115L176.231 372.889L205.21 382.407L231.848 403.734L274.551 459.36L338.833 483.913L414.221 485.25L394.478 498.915L399.245 508.365Z" fill="url(#paint1_linear_329_4)"/>
<defs>
<linearGradient id="paint0_linear_329_4" x1="208.164" y1="193.203" x2="234.576" y2="360.712" gradientUnits="userSpaceOnUse">
<stop stop-color="#B67933"/>
<stop offset="0.494792" stop-color="#FBF4A1"/>
<stop offset="1" stop-color="#B67933"/>
</linearGradient>
<linearGradient id="paint1_linear_329_4" x1="332.812" y1="175.674" x2="389.884" y2="537.644" gradientUnits="userSpaceOnUse">
<stop stop-color="#B67933"/>
<stop offset="0.494792" stop-color="#FBF4A1"/>
<stop offset="1" stop-color="#B67933"/>
</linearGradient>
</defs>
</svg>
